#!OML:ASF H:\Dans Jumps\Project 1\Capture day 1\Session 1\subject.ASF
:FULLY-SPECIFIED
:DEGREES
523
root 0.341948 17.7753 -2.89491 8.53344 0.173366 -1.3948
lowerback 1.15636 -0.352993 -0.117562
upperback 3.3082 -0.506223 1.62747
thorax 2.76276 -0.279584 1.73114
lowerneck -12.8061 0.0981483 -2.14197
upperneck 35.8224 0.407586 0.948784
head 14.4431 0.0116417 0.832888
rclavicle 1.78906e-015 -1.63003e-014
rhumerus -25.5446 -13.507 -80.9368
rradius 23.407
rwrist 33.2401
rhand -18.8511 -26.4018
rfingers 7.12502
rthumb 7.44888 -56.2506
lclavicle 1.78906e-015 -1.63003e-014
lhumerus -24.2827 -5.58153 91.3011
lradius 18.4473
lwrist 10.9511
lhand -25.0333 -1.6112
lfingers 7.12502
lthumb 1.47943 28.3634
rfemur -18.3404 -1.29826 19.5698
rtibia 22.6974
rfoot -11.7859 -0.795959
rtoes 15.1787
lfemur -16.9098 6.90935 -17.4793
ltibia 19.782
lfoot -8.57651 2.97621
ltoes 2.12725
524
root 0.3408 17.7746 -2.89842 8.51732 0.144358 -1.39555
lowerback 1.15687 -0.351565 -0.131942
upperback 3.30995 -0.504152 1.62194
thorax 2.76429 -0.278862 1.73355
lowerneck -12.7966 0.107136 -2.13306
upperneck 35.8227 0.417627 0.949386
head 14.4408 0.0170821 0.833047
rclavicle 2.23633e-015 -9.54166e-015
rhumerus -25.5599 -13.534 -80.9124
rradius 23.3817
rwrist 33.2725
rhand -18.8459 -26.4175
rfingers 7.12502
rthumb 7.45385 -56.2661
lclavicle 2.23633e-015 -9.54166e-015
lhumerus -24.3012 -5.6343 91.3386
lradius 18.4522
lwrist 10.9703
lhand -25.1887 -2.00203
lfingers 7.12502
lthumb 1.32936 27.9736
rfemur -18.349 -1.30746 19.5744
rtibia 22.7147
rfoot -11.7861 -0.762667
rtoes 15.1943
lfemur -16.9027 6.91343 -17.4722
ltibia 19.7912
lfoot -8.5792 2.99735
ltoes 2.14057
525
root 0.339746 17.7739 -2.90196 8.5005 0.118002 -1.39471
lowerback 1.15536 -0.352185 -0.14642
upperback 3.31383 -0.504843 1.61594
thorax 2.76925 -0.279539 1.73547
lowerneck -12.7929 0.117068 -2.12234
upperneck 35.8225 0.42982 0.946859
head 14.4396 0.0232557 0.831959
rclavicle -5.86415e-015 8.94531e-015
rhumerus -25.5653 -13.5736 -80.887
rradius 23.347
rwrist 33.3187
rhand -18.8444 -26.4395
rfingers 7.12502
rthumb 7.45533 -56.2881
lclavicle -5.86415e-015 8.94531e-015
lhumerus -24.3192 -5.68359 91.3756
lradius 18.4535
lwrist 10.9853
lhand -25.2597 -2.25997
lfingers 7.12502
lthumb 1.26074 27.716
rfemur -18.3572 -1.31791 19.5769
rtibia 22.7341
rfoot -11.7881 -0.73088
rtoes 15.2085
lfemur -16.8967 6.91916 -17.4675
ltibia 19.8031
lfoot -8.58445 3.01511
ltoes 2.14358
526
root 0.338791 17.7731 -2.90552 8.48348 0.0942254 -1.39398
lowerback 1.15226 -0.353998 -0.158799
upperback 3.31869 -0.507162 1.60999
thorax 2.77614 -0.280988 1.73625
lowerneck -12.7961 0.127235 -2.10847
upperneck 35.8251 0.443515 0.939168
head 14.4414 0.0297731 0.828489
rclavicle -9.14409e-015 2.08724e-014
rhumerus -25.5653 -13.6188 -80.8614
rradius 23.3083
rwrist 33.37
rhand -18.8452 -26.4645
rfingers 7.12502
rthumb 7.4546 -56.3132
lclavicle -9.14409e-015 2.08724e-014
lhumerus -24.3396 -5.73852 91.4148
lradius 18.44
lwrist 10.9813
lhand -25.3198 -2.52405
lfingers 7.12502
lthumb 1.20272 27.4523
rfemur -18.3647 -1.32724 19.5792
rtibia 22.7534
rfoot -11.7908 -0.702991
rtoes 15.221
lfemur -16.8922 6.92576 -17.4632
ltibia 19.8179
lfoot -8.59311 3.02963
ltoes 2.14144
527
root 0.33794 17.7723 -2.909 8.46609 0.0731104 -1.39193
lowerback 1.14787 -0.357261 -0.170015
upperback 3.3246 -0.511429 1.60352
thorax 2.78489 -0.283385 1.73579
lowerneck -12.8053 0.136276 -2.09504
upperneck 35.83 0.456832 0.928695
head 14.4455 0.0356658 0.823948
rclavicle -3.03147e-015 -1.21259e-014
rhumerus -25.5628 -13.6654 -80.8367
rradius 23.2701
rwrist 33.4238
rhand -18.8392 -26.494
rfingers 7.12502
rthumb 7.46037 -56.3424
lclavicle -3.03147e-015 -1.21259e-014
lhumerus -24.3597 -5.79771 91.4547
lradius 18.4127
lwrist 10.9626
lhand -25.295 -2.68749
lfingers 7.12502
lthumb 1.22669 27.2887
rfemur -18.3711 -1.33596 19.5795
rtibia 22.7723
rfoot -11.7931 -0.678702
rtoes 15.2194
lfemur -16.8885 6.93213 -17.4608
ltibia 19.835
lfoot -8.60445 3.04209
ltoes 2.13786
528
root 0.337192 17.7716 -2.91244 8.44876 0.0546476 -1.39254
lowerback 1.14314 -0.361749 -0.176073
upperback 3.32975 -0.517358 1.5975
thorax 2.79305 -0.286479 1.73289
lowerneck -12.8179 0.143798 -2.08221
upperneck 35.837 0.468683 0.916729
head 14.4515 0.0406206 0.818707
rclavicle -4.91992e-015 -6.75868e-015
rhumerus -25.5647 -13.7005 -80.8153
rradius 23.2424
rwrist 33.4674
rhand -18.8226 -26.5232
rfingers 7.12502
rthumb 7.47643 -56.3711
lclavicle -4.91992e-015 -6.75868e-015
lhumerus -24.3812 -5.85528 91.4932
lradius 18.3715
lwrist 10.919
lhand -25.2604 -2.83864
lfingers 7.12502
lthumb 1.26008 27.1374
rfemur -18.3766 -1.34392 19.5824
rtibia 22.7908
rfoot -11.7961 -0.656337
rtoes 15.2129
lfemur -16.8862 6.93711 -17.4554
ltibia 19.8551
lfoot -8.61874 3.05307
ltoes 2.14409
529
root 0.336468 17.7708 -2.91584 8.43164 0.0384212 -1.39403
lowerback 1.13951 -0.367163 -0.180394
upperback 3.33389 -0.524515 1.59184
thorax 2.79957 -0.290133 1.72937
lowerneck -12.8326 0.149755 -2.07231
upperneck 35.8449 0.478487 0.906452
head 14.4585 0.0445162 0.814377
rclavicle -5.91384e-015 3.18055e-015
rhumerus -25.5691 -13.7281 -80.7967
rradius 23.2219
rwrist 33.5029
rhand -18.8038 -26.5464
rfingers 7.12502
rthumb 7.49452 -56.3937
lclavicle -5.91384e-015 3.18055e-015
lhumerus -24.4014 -5.90985 91.5296
lradius 18.3253
lwrist 10.8657
lhand -25.2394 -2.98963
lfingers 7.12502
lthumb 1.28036 26.9863
rfemur -18.3825 -1.34677 19.5858
rtibia 22.81
rfoot -11.7978 -0.640715
rtoes 15.1912
lfemur -16.8854 6.9404 -17.4488
ltibia 19.8773
lfoot -8.63436 3.06321
ltoes 2.16348
